<svg xmlns="http://www.w3.org/2000/svg" width="16" height="16" shape-rendering="crispEdges"><path fill="#071821" d="M0 0h1v1H0zM1 0h1v1H1zM2 0h1v1H2zM3 0h1v1H3zM4 0h1v1H4zM5 0h1v1H5zM6 0h1v1H6zM7 0h1v1H7zM8 0h1v1H8zM9 0h1v1H9zM10 0h1v1h-1zM11 0h1v1h-1zM0 1h1v1H0z"/><path fill="#86C06C" d="M1 1h1v1H1zM2 1h1v1H2zM3 1h1v1H3zM4 1h1v1H4z"/><path fill="#E0F8CF" d="M5 1h1v1H5zM6 1h1v1H6z"/><path fill="#86C06C" d="M7 1h1v1H7zM8 1h1v1H8zM9 1h1v1H9zM10 1h1v1h-1z"/><path fill="#071821" d="M11 1h1v1h-1zM0 2h1v1H0z"/><path fill="#86C06C" d="M1 2h1v1H1zM2 2h1v1H2zM3 2h1v1H3zM4 2h1v1H4z"/><path fill="#E0F8CF" d="M5 2h1v1H5zM6 2h1v1H6z"/><path fill="#86C06C" d="M7 2h1v1H7zM8 2h1v1H8zM9 2h1v1H9zM10 2h1v1h-1z"/><path fill="#071821" d="M11 2h1v1h-1zM0 3h1v1H0z"/><path fill="#86C06C" d="M1 3h1v1H1zM2 3h1v1H2zM3 3h1v1H3zM4 3h1v1H4z"/><path fill="#E0F8CF" d="M5 3h1v1H5zM6 3h1v1H6z"/><path fill="#86C06C" d="M7 3h1v1H7zM8 3h1v1H8zM9 3h1v1H9zM10 3h1v1h-1z"/><path fill="#071821" d="M11 3h1v1h-1zM0 4h1v1H0z"/><path fill="#86C06C" d="M1 4h1v1H1zM2 4h1v1H2zM3 4h1v1H3zM4 4h1v1H4z"/><path fill="#E0F8CF" d="M5 4h1v1H5zM6 4h1v1H6z"/><path fill="#86C06C" d="M7 4h1v1H7zM8 4h1v1H8zM9 4h1v1H9zM10 4h1v1h-1z"/><path fill="#071821" d="M11 4h1v1h-1zM0 5h1v1H0z"/><path fill="#86C06C" d="M1 5h1v1H1zM2 5h1v1H2zM3 5h1v1H3zM4 5h1v1H4z"/><path fill="#E0F8CF" d="M5 5h1v1H5zM6 5h1v1H6z"/><path fill="#86C06C" d="M7 5h1v1H7zM8 5h1v1H8zM9 5h1v1H9zM10 5h1v1h-1z"/><path fill="#071821" d="M11 5h1v1h-1zM0 6h1v1H0z"/><path fill="#86C06C" d="M1 6h1v1H1zM2 6h1v1H2zM3 6h1v1H3zM4 6h1v1H4z"/><path fill="#E0F8CF" d="M5 6h1v1H5zM6 6h1v1H6z"/><path fill="#86C06C" d="M7 6h1v1H7zM8 6h1v1H8zM9 6h1v1H9zM10 6h1v1h-1z"/><path fill="#071821" d="M11 6h1v1h-1zM0 7h1v1H0z"/><path fill="#86C06C" d="M1 7h1v1H1zM2 7h1v1H2zM3 7h1v1H3zM4 7h1v1H4z"/><path fill="#E0F8CF" d="M5 7h1v1H5zM6 7h1v1H6z"/><path fill="#86C06C" d="M7 7h1v1H7zM8 7h1v1H8zM9 7h1v1H9zM10 7h1v1h-1z"/><path fill="#071821" d="M11 7h1v1h-1zM0 8h1v1H0z"/><path fill="#306850" d="M1 8h1v1H1zM2 8h1v1H2zM3 8h1v1H3zM4 8h1v1H4z"/><path fill="#86C06C" d="M5 8h1v1H5zM6 8h1v1H6z"/><path fill="#306850" d="M7 8h1v1H7zM8 8h1v1H8zM9 8h1v1H9zM10 8h1v1h-1z"/><path fill="#071821" d="M11 8h1v1h-1zM0 9h1v1H0z"/><path fill="#306850" d="M1 9h1v1H1zM2 9h1v1H2zM3 9h1v1H3zM4 9h1v1H4z"/><path fill="#86C06C" d="M5 9h1v1H5zM6 9h1v1H6z"/><path fill="#306850" d="M7 9h1v1H7zM8 9h1v1H8zM9 9h1v1H9zM10 9h1v1h-1z"/><path fill="#071821" d="M11 9h1v1h-1zM0 10h1v1H0z"/><path fill="#306850" d="M1 10h1v1H1z"/><path fill="#86C06C" d="M2 10h1v1H2zM3 10h1v1H3z"/><path fill="#306850" d="M4 10h1v1H4z"/><path fill="#86C06C" d="M5 10h1v1H5zM6 10h1v1H6z"/><path fill="#306850" d="M7 10h1v1H7zM8 10h1v1H8z"/><path fill="#86C06C" d="M9 10h1v1H9z"/><path fill="#306850" d="M10 10h1v1h-1z"/><path fill="#071821" d="M11 10h1v1h-1zM0 11h1v1H0z"/><path fill="#306850" d="M1 11h1v1H1z"/><path fill="#86C06C" d="M2 11h1v1H2zM3 11h1v1H3z"/><path fill="#306850" d="M4 11h1v1H4z"/><path fill="#86C06C" d="M5 11h1v1H5zM6 11h1v1H6z"/><path fill="#306850" d="M7 11h1v1H7zM8 11h1v1H8z"/><path fill="#86C06C" d="M9 11h1v1H9z"/><path fill="#306850" d="M10 11h1v1h-1z"/><path fill="#071821" d="M11 11h1v1h-1zM0 12h1v1H0z"/><path fill="#306850" d="M1 12h1v1H1zM2 12h1v1H2zM3 12h1v1H3zM4 12h1v1H4z"/><path fill="#86C06C" d="M5 12h1v1H5zM6 12h1v1H6z"/><path fill="#306850" d="M7 12h1v1H7zM8 12h1v1H8zM9 12h1v1H9zM10 12h1v1h-1z"/><path fill="#071821" d="M11 12h1v1h-1zM0 13h1v1H0z"/><path fill="#306850" d="M1 13h1v1H1z"/><path fill="#86C06C" d="M2 13h1v1H2zM3 13h1v1H3z"/><path fill="#306850" d="M4 13h1v1H4z"/><path fill="#86C06C" d="M5 13h1v1H5zM6 13h1v1H6z"/><path fill="#306850" d="M7 13h1v1H7zM8 13h1v1H8z"/><path fill="#86C06C" d="M9 13h1v1H9z"/><path fill="#306850" d="M10 13h1v1h-1z"/><path fill="#071821" d="M11 13h1v1h-1zM0 14h1v1H0z"/><path fill="#306850" d="M1 14h1v1H1zM2 14h1v1H2zM3 14h1v1H3zM4 14h1v1H4z"/><path fill="#86C06C" d="M5 14h1v1H5zM6 14h1v1H6z"/><path fill="#306850" d="M7 14h1v1H7zM8 14h1v1H8zM9 14h1v1H9zM10 14h1v1h-1z"/><path fill="#071821" d="M11 14h1v1h-1zM0 15h1v1H0zM1 15h1v1H1zM2 15h1v1H2zM3 15h1v1H3zM4 15h1v1H4zM5 15h1v1H5zM6 15h1v1H6zM7 15h1v1H7zM8 15h1v1H8zM9 15h1v1H9zM10 15h1v1h-1zM11 15h1v1h-1z"/></svg>