<svg xmlns="http://www.w3.org/2000/svg" width="16" height="16" shape-rendering="crispEdges"><path fill="#071821" d="M12 0h1v1h-1zM13 0h1v1h-1zM9 1h1v1H9zM10 1h1v1h-1zM11 1h1v1h-1z"/><path fill="#86C06C" d="M12 1h1v1h-1zM13 1h1v1h-1z"/><path fill="#071821" d="M14 1h1v1h-1zM7 2h1v1H7zM8 2h1v1H8z"/><path fill="#86C06C" d="M9 2h1v1H9zM10 2h1v1h-1zM11 2h1v1h-1zM12 2h1v1h-1z"/><path fill="#071821" d="M13 2h1v1h-1zM15 2h1v1h-1zM4 3h1v1H4zM5 3h1v1H5zM6 3h1v1H6z"/><path fill="#86C06C" d="M7 3h1v1H7zM8 3h1v1H8zM9 3h1v1H9zM10 3h1v1h-1zM11 3h1v1h-1z"/><path fill="#071821" d="M12 3h1v1h-1zM3 4h1v1H3z"/><path fill="#86C06C" d="M4 4h1v1H4zM5 4h1v1H5zM6 4h1v1H6zM7 4h1v1H7zM8 4h1v1H8zM9 4h1v1H9zM10 4h1v1h-1zM11 4h1v1h-1z"/><path fill="#071821" d="M12 4h1v1h-1zM1 5h1v1H1zM2 5h1v1H2zM3 5h1v1H3zM4 5h1v1H4zM5 5h1v1H5zM6 5h1v1H6z"/><path fill="#86C06C" d="M7 5h1v1H7zM8 5h1v1H8zM9 5h1v1H9zM10 5h1v1h-1zM11 5h1v1h-1zM12 5h1v1h-1z"/><path fill="#071821" d="M13 5h1v1h-1zM0 6h1v1H0z"/><path fill="#86C06C" d="M1 6h1v1H1zM2 6h1v1H2zM3 6h1v1H3zM4 6h1v1H4zM5 6h1v1H5z"/><path fill="#071821" d="M6 6h1v1H6zM7 6h1v1H7zM8 6h1v1H8zM9 6h1v1H9zM10 6h1v1h-1zM11 6h1v1h-1z"/><path fill="#86C06C" d="M12 6h1v1h-1z"/><path fill="#071821" d="M13 6h1v1h-1zM1 7h1v1H1zM2 7h1v1H2zM3 7h1v1H3zM4 7h1v1H4zM5 7h1v1H5z"/><path fill="#E0F8CF" d="M6 7h1v1H6zM7 7h1v1H7zM8 7h1v1H8z"/><path fill="#071821" d="M9 7h1v1H9z"/><path fill="#86C06C" d="M10 7h1v1h-1zM11 7h1v1h-1z"/><path fill="#071821" d="M12 7h1v1h-1zM13 7h1v1h-1zM14 7h1v1h-1zM2 8h1v1H2z"/><path fill="#E0F8CF" d="M3 8h1v1H3z"/><path fill="#86C06C" d="M4 8h1v1H4z"/><path fill="#071821" d="M5 8h1v1H5z"/><path fill="#E0F8CF" d="M6 8h1v1H6zM7 8h1v1H7zM8 8h1v1H8z"/><path fill="#071821" d="M9 8h1v1H9z"/><path fill="#86C06C" d="M10 8h1v1h-1zM11 8h1v1h-1zM12 8h1v1h-1zM13 8h1v1h-1zM14 8h1v1h-1z"/><path fill="#071821" d="M15 8h1v1h-1zM3 9h1v1H3z"/><path fill="#E0F8CF" d="M4 9h1v1H4zM5 9h1v1H5z"/><path fill="#071821" d="M6 9h1v1H6z"/><path fill="#E0F8CF" d="M7 9h1v1H7z"/><path fill="#071821" d="M8 9h1v1H8z"/><path fill="#E0F8CF" d="M9 9h1v1H9z"/><path fill="#071821" d="M10 9h1v1h-1zM11 9h1v1h-1zM12 9h1v1h-1zM13 9h1v1h-1zM14 9h1v1h-1zM4 10h1v1H4zM5 10h1v1H5zM6 10h1v1H6z"/><path fill="#E0F8CF" d="M7 10h1v1H7z"/><path fill="#071821" d="M8 10h1v1H8zM9 10h1v1H9z"/><path fill="#86C06C" d="M10 10h1v1h-1z"/><path fill="#071821" d="M11 10h1v1h-1zM3 11h1v1H3z"/><path fill="#86C06C" d="M4 11h1v1H4zM5 11h1v1H5z"/><path fill="#071821" d="M6 11h1v1H6zM7 11h1v1H7zM8 11h1v1H8z"/><path fill="#86C06C" d="M9 11h1v1H9zM10 11h1v1h-1z"/><path fill="#071821" d="M11 11h1v1h-1zM3 12h1v1H3z"/><path fill="#86C06C" d="M4 12h1v1H4zM5 12h1v1H5z"/><path fill="#071821" d="M6 12h1v1H6z"/><path fill="#E0F8CF" d="M7 12h1v1H7zM8 12h1v1H8z"/><path fill="#071821" d="M9 12h1v1H9z"/><path fill="#86C06C" d="M10 12h1v1h-1zM11 12h1v1h-1z"/><path fill="#071821" d="M12 12h1v1h-1zM2 13h1v1H2z"/><path fill="#86C06C" d="M3 13h1v1H3zM4 13h1v1H4zM5 13h1v1H5z"/><path fill="#071821" d="M6 13h1v1H6z"/><path fill="#E0F8CF" d="M7 13h1v1H7zM8 13h1v1H8z"/><path fill="#071821" d="M9 13h1v1H9z"/><path fill="#86C06C" d="M10 13h1v1h-1zM11 13h1v1h-1z"/><path fill="#071821" d="M12 13h1v1h-1zM2 14h1v1H2z"/><path fill="#86C06C" d="M3 14h1v1H3zM4 14h1v1H4zM5 14h1v1H5z"/><path fill="#071821" d="M6 14h1v1H6zM7 14h1v1H7zM8 14h1v1H8z"/><path fill="#86C06C" d="M9 14h1v1H9zM10 14h1v1h-1zM11 14h1v1h-1zM12 14h1v1h-1z"/><path fill="#071821" d="M13 14h1v1h-1zM2 15h1v1H2zM3 15h1v1H3zM4 15h1v1H4zM5 15h1v1H5zM6 15h1v1H6z"/><path fill="#E0F8CF" d="M7 15h1v1H7z"/><path fill="#071821" d="M8 15h1v1H8zM9 15h1v1H9zM10 15h1v1h-1zM11 15h1v1h-1zM12 15h1v1h-1zM13 15h1v1h-1z"/></svg>