<svg xmlns="http://www.w3.org/2000/svg" width="16" height="16" shape-rendering="crispEdges"><path fill="#071821" d="M7 0h1v1H7zm1 0h1v1H8zM6 1h1v1H6z"/><path fill="#E0F8CF" d="M7 1h1v1H7zm1 0h1v1H8z"/><path fill="#071821" d="M9 1h1v1H9zM6 2h1v1H6z"/><path fill="#86C06C" d="M7 2h1v1H7zm1 0h1v1H8z"/><path fill="#071821" d="M9 2h1v1H9zM5 3h1v1H5zm1 0h1v1H6zm1 0h1v1H7zm1 0h1v1H8zm1 0h1v1H9zm1 0h1v1h-1zM4 4h1v1H4z"/><path fill="#86C06C" d="M5 4h1v1H5zm1 0h1v1H6zm1 0h1v1H7zm1 0h1v1H8zm1 0h1v1H9zm1 0h1v1h-1z"/><path fill="#071821" d="M11 4h1v1h-1zM3 5h1v1H3z"/><path fill="#86C06C" d="M4 5h1v1H4z"/><path fill="#E0F8CF" d="M5 5h1v1H5zm1 0h1v1H6z"/><path fill="#86C06C" d="M7 5h1v1H7zm1 0h1v1H8z"/><path fill="#E0F8CF" d="M9 5h1v1H9zm1 0h1v1h-1z"/><path fill="#86C06C" d="M11 5h1v1h-1z"/><path fill="#071821" d="M12 5h1v1h-1zM3 6h1v1H3z"/><path fill="#86C06C" d="M4 6h1v1H4z"/><path fill="#E0F8CF" d="M5 6h1v1H5z"/><path fill="#071821" d="M6 6h1v1H6z"/><path fill="#86C06C" d="M7 6h1v1H7zm1 0h1v1H8z"/><path fill="#071821" d="M9 6h1v1H9z"/><path fill="#E0F8CF" d="M10 6h1v1h-1z"/><path fill="#86C06C" d="M11 6h1v1h-1z"/><path fill="#071821" d="M12 6h1v1h-1zM2 7h1v1H2z"/><path fill="#86C06C" d="M3 7h1v1H3zm1 0h1v1H4zm1 0h1v1H5zm1 0h1v1H6zm1 0h1v1H7zm1 0h1v1H8zm1 0h1v1H9zm1 0h1v1h-1zm1 0h1v1h-1zm1 0h1v1h-1z"/><path fill="#071821" d="M13 7h1v1h-1zM2 8h1v1H2z"/><path fill="#E0F8CF" d="M3 8h1v1H3z"/><path fill="#071821" d="M4 8h1v1H4z"/><path fill="#86C06C" d="M5 8h1v1H5zm1 0h1v1H6z"/><path fill="#E0F8CF" d="M7 8h1v1H7zm1 0h1v1H8z"/><path fill="#86C06C" d="M9 8h1v1H9zm1 0h1v1h-1z"/><path fill="#071821" d="M11 8h1v1h-1z"/><path fill="#E0F8CF" d="M12 8h1v1h-1z"/><path fill="#071821" d="M13 8h1v1h-1zM2 9h1v1H2z"/><path fill="#E0F8CF" d="M3 9h1v1H3z"/><path fill="#071821" d="M4 9h1v1H4z"/><path fill="#86C06C" d="M5 9h1v1H5z"/><path fill="#E0F8CF" d="M6 9h1v1H6z"/><path fill="#071821" d="M7 9h1v1H7zm1 0h1v1H8z"/><path fill="#E0F8CF" d="M9 9h1v1H9z"/><path fill="#86C06C" d="M10 9h1v1h-1z"/><path fill="#071821" d="M11 9h1v1h-1z"/><path fill="#E0F8CF" d="M12 9h1v1h-1z"/><path fill="#071821" d="M13 9h1v1h-1zM2 10h1v1H2z"/><path fill="#E0F8CF" d="M3 10h1v1H3z"/><path fill="#071821" d="M4 10h1v1H4z"/><path fill="#86C06C" d="M5 10h1v1H5zm1 0h1v1H6z"/><path fill="#E0F8CF" d="M7 10h1v1H7zm1 0h1v1H8z"/><path fill="#86C06C" d="M9 10h1v1H9zm1 0h1v1h-1z"/><path fill="#071821" d="M11 10h1v1h-1z"/><path fill="#E0F8CF" d="M12 10h1v1h-1z"/><path fill="#071821" d="M13 10h1v1h-1zM3 11h1v1H3z"/><path fill="#86C06C" d="M4 11h1v1H4zm1 0h1v1H5zm1 0h1v1H6zm1 0h1v1H7zm1 0h1v1H8zm1 0h1v1H9zm1 0h1v1h-1zm1 0h1v1h-1z"/><path fill="#071821" d="M12 11h1v1h-1zm-8 1h1v1H4z"/><path fill="#86C06C" d="M5 12h1v1H5zm1 0h1v1H6zm1 0h1v1H7zm1 0h1v1H8zm1 0h1v1H9zm1 0h1v1h-1z"/><path fill="#071821" d="M11 12h1v1h-1zm-6 1h1v1H5z"/><path fill="#86C06C" d="M6 13h1v1H6zm1 0h1v1H7zm1 0h1v1H8zm1 0h1v1H9z"/><path fill="#071821" d="M10 13h1v1h-1zm-4 1h1v1H6zm1 0h1v1H7zm1 0h1v1H8zm1 0h1v1H9z"/></svg>