<svg xmlns="http://www.w3.org/2000/svg" width="16" height="16" shape-rendering="crispEdges"><path fill="#071821" d="M4 0h1v1H4zM5 0h1v1H5zM6 0h1v1H6zM7 0h1v1H7zM8 0h1v1H8zM9 0h1v1H9zM10 0h1v1h-1zM11 0h1v1h-1zM2 1h1v1H2zM3 1h1v1H3z"/><path fill="#86C06C" d="M4 1h1v1H4zM5 1h1v1H5zM6 1h1v1H6zM7 1h1v1H7zM8 1h1v1H8zM9 1h1v1H9zM10 1h1v1h-1zM11 1h1v1h-1z"/><path fill="#071821" d="M12 1h1v1h-1zM1 2h1v1H1z"/><path fill="#86C06C" d="M2 2h1v1H2zM3 2h1v1H3zM4 2h1v1H4zM5 2h1v1H5zM6 2h1v1H6zM7 2h1v1H7zM8 2h1v1H8zM9 2h1v1H9zM10 2h1v1h-1zM11 2h1v1h-1zM12 2h1v1h-1z"/><path fill="#071821" d="M13 2h1v1h-1zM1 3h1v1H1z"/><path fill="#86C06C" d="M2 3h1v1H2zM3 3h1v1H3zM4 3h1v1H4zM5 3h1v1H5zM6 3h1v1H6zM7 3h1v1H7zM8 3h1v1H8zM9 3h1v1H9zM10 3h1v1h-1zM11 3h1v1h-1zM12 3h1v1h-1zM13 3h1v1h-1z"/><path fill="#071821" d="M14 3h1v1h-1zM2 4h1v1H2z"/><path fill="#86C06C" d="M3 4h1v1H3zM4 4h1v1H4z"/><path fill="#071821" d="M5 4h1v1H5zM6 4h1v1H6z"/><path fill="#86C06C" d="M7 4h1v1H7zM8 4h1v1H8zM9 4h1v1H9zM10 4h1v1h-1zM11 4h1v1h-1zM12 4h1v1h-1z"/><path fill="#071821" d="M13 4h1v1h-1zM3 5h1v1H3zM4 5h1v1H4z"/><path fill="#E0F8CF" d="M5 5h1v1H5zM6 5h1v1H6z"/><path fill="#071821" d="M7 5h1v1H7zM8 5h1v1H8zM9 5h1v1H9z"/><path fill="#86C06C" d="M10 5h1v1h-1zM11 5h1v1h-1zM12 5h1v1h-1z"/><path fill="#071821" d="M13 5h1v1h-1zM3 6h1v1H3z"/><path fill="#E0F8CF" d="M4 6h1v1H4z"/><path fill="#071821" d="M5 6h1v1H5zM6 6h1v1H6z"/><path fill="#E0F8CF" d="M7 6h1v1H7zM8 6h1v1H8zM9 6h1v1H9z"/><path fill="#071821" d="M10 6h1v1h-1z"/><path fill="#86C06C" d="M11 6h1v1h-1zM12 6h1v1h-1z"/><path fill="#071821" d="M13 6h1v1h-1zM3 7h1v1H3z"/><path fill="#E0F8CF" d="M4 7h1v1H4zM5 7h1v1H5zM6 7h1v1H6zM7 7h1v1H7zM8 7h1v1H8zM9 7h1v1H9zM10 7h1v1h-1z"/><path fill="#071821" d="M11 7h1v1h-1zM12 7h1v1h-1zM4 8h1v1H4z"/><path fill="#86C06C" d="M5 8h1v1H5zM6 8h1v1H6z"/><path fill="#E0F8CF" d="M7 8h1v1H7zM8 8h1v1H8zM9 8h1v1H9z"/><path fill="#071821" d="M10 8h1v1h-1zM11 8h1v1h-1zM3 9h1v1H3z"/><path fill="#E0F8CF" d="M4 9h1v1H4z"/><path fill="#071821" d="M5 9h1v1H5zM6 9h1v1H6zM7 9h1v1H7zM8 9h1v1H8zM9 9h1v1H9z"/><path fill="#E0F8CF" d="M10 9h1v1h-1z"/><path fill="#86C06C" d="M11 9h1v1h-1z"/><path fill="#071821" d="M12 9h1v1h-1zM2 10h1v1H2z"/><path fill="#E0F8CF" d="M3 10h1v1H3zM4 10h1v1H4z"/><path fill="#86C06C" d="M5 10h1v1H5z"/><path fill="#E0F8CF" d="M6 10h1v1H6z"/><path fill="#071821" d="M7 10h1v1H7z"/><path fill="#E0F8CF" d="M8 10h1v1H8zM9 10h1v1H9z"/><path fill="#071821" d="M10 10h1v1h-1z"/><path fill="#86C06C" d="M11 10h1v1h-1z"/><path fill="#071821" d="M12 10h1v1h-1zM2 11h1v1H2z"/><path fill="#E0F8CF" d="M3 11h1v1H3z"/><path fill="#86C06C" d="M4 11h1v1H4zM5 11h1v1H5z"/><path fill="#E0F8CF" d="M6 11h1v1H6z"/><path fill="#071821" d="M7 11h1v1H7z"/><path fill="#E0F8CF" d="M8 11h1v1H8zM9 11h1v1H9z"/><path fill="#071821" d="M10 11h1v1h-1z"/><path fill="#86C06C" d="M11 11h1v1h-1z"/><path fill="#071821" d="M12 11h1v1h-1zM2 12h1v1H2z"/><path fill="#86C06C" d="M3 12h1v1H3zM4 12h1v1H4zM5 12h1v1H5zM6 12h1v1H6zM7 12h1v1H7z"/><path fill="#071821" d="M8 12h1v1H8z"/><path fill="#E0F8CF" d="M9 12h1v1H9zM10 12h1v1h-1z"/><path fill="#071821" d="M11 12h1v1h-1zM12 12h1v1h-1zM3 13h1v1H3zM4 13h1v1H4z"/><path fill="#86C06C" d="M5 13h1v1H5zM6 13h1v1H6zM7 13h1v1H7z"/><path fill="#071821" d="M8 13h1v1H8z"/><path fill="#E0F8CF" d="M9 13h1v1H9zM10 13h1v1h-1z"/><path fill="#071821" d="M11 13h1v1h-1zM5 14h1v1H5z"/><path fill="#86C06C" d="M6 14h1v1H6zM7 14h1v1H7zM8 14h1v1H8z"/><path fill="#071821" d="M9 14h1v1H9zM10 14h1v1h-1zM6 15h1v1H6zM7 15h1v1H7zM8 15h1v1H8z"/></svg>