<svg xmlns="http://www.w3.org/2000/svg" width="32" height="16" shape-rendering="crispEdges"><path fill="#071821" d="M21 0h1v1h-1zM22 0h1v1h-1zM23 0h1v1h-1zM24 0h1v1h-1zM25 0h1v1h-1zM26 0h1v1h-1zM5 1h1v1H5zM6 1h1v1H6zM7 1h1v1H7zM8 1h1v1H8zM9 1h1v1H9zM10 1h1v1h-1zM20 1h1v1h-1z"/><path fill="#E0F8CF" d="M21 1h1v1h-1zM22 1h1v1h-1zM23 1h1v1h-1zM24 1h1v1h-1zM25 1h1v1h-1zM26 1h1v1h-1z"/><path fill="#071821" d="M27 1h1v1h-1zM4 2h1v1H4z"/><path fill="#E0F8CF" d="M5 2h1v1H5zM6 2h1v1H6zM7 2h1v1H7zM8 2h1v1H8zM9 2h1v1H9zM10 2h1v1h-1z"/><path fill="#071821" d="M11 2h1v1h-1zM19 2h1v1h-1z"/><path fill="#E0F8CF" d="M20 2h1v1h-1zM21 2h1v1h-1zM22 2h1v1h-1zM23 2h1v1h-1zM24 2h1v1h-1zM25 2h1v1h-1z"/><path fill="#86C06C" d="M26 2h1v1h-1zM27 2h1v1h-1z"/><path fill="#071821" d="M28 2h1v1h-1zM3 3h1v1H3z"/><path fill="#E0F8CF" d="M4 3h1v1H4zM5 3h1v1H5zM6 3h1v1H6zM7 3h1v1H7z"/><path fill="#86C06C" d="M8 3h1v1H8zM9 3h1v1H9zM10 3h1v1h-1zM11 3h1v1h-1z"/><path fill="#071821" d="M12 3h1v1h-1zM18 3h1v1h-1z"/><path fill="#E0F8CF" d="M19 3h1v1h-1zM20 3h1v1h-1zM21 3h1v1h-1zM22 3h1v1h-1zM23 3h1v1h-1zM24 3h1v1h-1z"/><path fill="#86C06C" d="M25 3h1v1h-1z"/><path fill="#E0F8CF" d="M26 3h1v1h-1zM27 3h1v1h-1zM28 3h1v1h-1z"/><path fill="#071821" d="M29 3h1v1h-1zM2 4h1v1H2z"/><path fill="#E0F8CF" d="M3 4h1v1H3zM4 4h1v1H4zM5 4h1v1H5zM6 4h1v1H6z"/><path fill="#86C06C" d="M7 4h1v1H7z"/><path fill="#E0F8CF" d="M8 4h1v1H8zM9 4h1v1H9zM10 4h1v1h-1zM11 4h1v1h-1zM12 4h1v1h-1z"/><path fill="#071821" d="M13 4h1v1h-1zM18 4h1v1h-1z"/><path fill="#E0F8CF" d="M19 4h1v1h-1zM20 4h1v1h-1zM21 4h1v1h-1z"/><path fill="#071821" d="M22 4h1v1h-1z"/><path fill="#E0F8CF" d="M23 4h1v1h-1zM24 4h1v1h-1zM25 4h1v1h-1zM26 4h1v1h-1z"/><path fill="#86C06C" d="M27 4h1v1h-1zM28 4h1v1h-1z"/><path fill="#071821" d="M29 4h1v1h-1zM2 5h1v1H2z"/><path fill="#E0F8CF" d="M3 5h1v1H3z"/><path fill="#071821" d="M4 5h1v1H4z"/><path fill="#E0F8CF" d="M5 5h1v1H5zM6 5h1v1H6zM7 5h1v1H7zM8 5h1v1H8z"/><path fill="#86C06C" d="M9 5h1v1H9zM10 5h1v1h-1zM11 5h1v1h-1zM12 5h1v1h-1z"/><path fill="#071821" d="M13 5h1v1h-1zM18 5h1v1h-1z"/><path fill="#E0F8CF" d="M19 5h1v1h-1zM20 5h1v1h-1z"/><path fill="#071821" d="M21 5h1v1h-1z"/><path fill="#E0F8CF" d="M22 5h1v1h-1z"/><path fill="#071821" d="M23 5h1v1h-1z"/><path fill="#E0F8CF" d="M24 5h1v1h-1zM25 5h1v1h-1z"/><path fill="#86C06C" d="M26 5h1v1h-1z"/><path fill="#E0F8CF" d="M27 5h1v1h-1zM28 5h1v1h-1z"/><path fill="#071821" d="M29 5h1v1h-1zM2 6h1v1H2zM3 6h1v1H3z"/><path fill="#E0F8CF" d="M4 6h1v1H4z"/><path fill="#071821" d="M5 6h1v1H5z"/><path fill="#E0F8CF" d="M6 6h1v1H6zM7 6h1v1H7z"/><path fill="#86C06C" d="M8 6h1v1H8z"/><path fill="#E0F8CF" d="M9 6h1v1H9zM10 6h1v1h-1zM11 6h1v1h-1zM12 6h1v1h-1z"/><path fill="#071821" d="M13 6h1v1h-1zM18 6h1v1h-1z"/><path fill="#E0F8CF" d="M19 6h1v1h-1zM20 6h1v1h-1z"/><path fill="#071821" d="M21 6h1v1h-1z"/><path fill="#E0F8CF" d="M22 6h1v1h-1zM23 6h1v1h-1zM24 6h1v1h-1zM25 6h1v1h-1zM26 6h1v1h-1zM27 6h1v1h-1z"/><path fill="#071821" d="M28 6h1v1h-1zM29 6h1v1h-1zM2 7h1v1H2zM3 7h1v1H3z"/><path fill="#E0F8CF" d="M4 7h1v1H4zM5 7h1v1H5zM6 7h1v1H6zM7 7h1v1H7zM8 7h1v1H8zM9 7h1v1H9z"/><path fill="#071821" d="M10 7h1v1h-1z"/><path fill="#E0F8CF" d="M11 7h1v1h-1z"/><path fill="#071821" d="M12 7h1v1h-1zM13 7h1v1h-1zM18 7h1v1h-1z"/><path fill="#E0F8CF" d="M19 7h1v1h-1zM20 7h1v1h-1z"/><path fill="#071821" d="M21 7h1v1h-1z"/><path fill="#E0F8CF" d="M22 7h1v1h-1zM23 7h1v1h-1zM24 7h1v1h-1zM25 7h1v1h-1zM26 7h1v1h-1z"/><path fill="#071821" d="M27 7h1v1h-1z"/><path fill="#E0F8CF" d="M28 7h1v1h-1z"/><path fill="#071821" d="M29 7h1v1h-1zM2 8h1v1H2zM3 8h1v1H3z"/><path fill="#E0F8CF" d="M4 8h1v1H4zM5 8h1v1H5zM6 8h1v1H6zM7 8h1v1H7zM8 8h1v1H8z"/><path fill="#071821" d="M9 8h1v1H9z"/><path fill="#E0F8CF" d="M10 8h1v1h-1zM11 8h1v1h-1zM12 8h1v1h-1z"/><path fill="#071821" d="M13 8h1v1h-1zM19 8h1v1h-1z"/><path fill="#E0F8CF" d="M20 8h1v1h-1zM21 8h1v1h-1z"/><path fill="#071821" d="M22 8h1v1h-1zM23 8h1v1h-1z"/><path fill="#E0F8CF" d="M24 8h1v1h-1zM25 8h1v1h-1zM26 8h1v1h-1zM27 8h1v1h-1z"/><path fill="#071821" d="M28 8h1v1h-1zM3 9h1v1H3zM4 9h1v1H4zM5 9h1v1H5z"/><path fill="#E0F8CF" d="M6 9h1v1H6zM7 9h1v1H7zM8 9h1v1H8zM9 9h1v1H9zM10 9h1v1h-1zM11 9h1v1h-1z"/><path fill="#071821" d="M12 9h1v1h-1zM20 9h1v1h-1z"/><path fill="#E0F8CF" d="M21 9h1v1h-1z"/><path fill="#86C06C" d="M22 9h1v1h-1z"/><path fill="#E0F8CF" d="M23 9h1v1h-1zM24 9h1v1h-1zM25 9h1v1h-1zM26 9h1v1h-1z"/><path fill="#071821" d="M27 9h1v1h-1zM3 10h1v1H3zM4 10h1v1H4zM5 10h1v1H5zM6 10h1v1H6zM7 10h1v1H7zM8 10h1v1H8zM9 10h1v1H9z"/><path fill="#E0F8CF" d="M10 10h1v1h-1z"/><path fill="#071821" d="M11 10h1v1h-1zM19 10h1v1h-1zM20 10h1v1h-1zM21 10h1v1h-1zM22 10h1v1h-1zM23 10h1v1h-1zM24 10h1v1h-1zM25 10h1v1h-1z"/><path fill="#E0F8CF" d="M26 10h1v1h-1z"/><path fill="#071821" d="M27 10h1v1h-1zM2 11h1v1H2z"/><path fill="#86C06C" d="M3 11h1v1H3z"/><path fill="#071821" d="M4 11h1v1H4zM5 11h1v1H5z"/><path fill="#86C06C" d="M6 11h1v1H6zM7 11h1v1H7zM8 11h1v1H8zM9 11h1v1H9z"/><path fill="#071821" d="M10 11h1v1h-1zM18 11h1v1h-1z"/><path fill="#86C06C" d="M19 11h1v1h-1zM20 11h1v1h-1zM21 11h1v1h-1zM22 11h1v1h-1zM23 11h1v1h-1zM24 11h1v1h-1z"/><path fill="#071821" d="M25 11h1v1h-1zM26 11h1v1h-1zM2 12h1v1H2zM3 12h1v1H3z"/><path fill="#E0F8CF" d="M4 12h1v1H4zM5 12h1v1H5z"/><path fill="#071821" d="M6 12h1v1H6z"/><path fill="#86C06C" d="M7 12h1v1H7zM8 12h1v1H8z"/><path fill="#071821" d="M9 12h1v1H9zM10 12h1v1h-1zM18 12h1v1h-1zM19 12h1v1h-1z"/><path fill="#86C06C" d="M20 12h1v1h-1zM21 12h1v1h-1zM22 12h1v1h-1zM23 12h1v1h-1z"/><path fill="#071821" d="M24 12h1v1h-1z"/><path fill="#E0F8CF" d="M25 12h1v1h-1zM26 12h1v1h-1z"/><path fill="#071821" d="M27 12h1v1h-1zM1 13h1v1H1zM2 13h1v1H2zM3 13h1v1H3z"/><path fill="#E0F8CF" d="M4 13h1v1H4zM5 13h1v1H5z"/><path fill="#071821" d="M6 13h1v1H6zM7 13h1v1H7zM8 13h1v1H8z"/><path fill="#86C06C" d="M9 13h1v1H9zM10 13h1v1h-1z"/><path fill="#071821" d="M11 13h1v1h-1zM17 13h1v1h-1z"/><path fill="#86C06C" d="M18 13h1v1h-1zM19 13h1v1h-1z"/><path fill="#071821" d="M20 13h1v1h-1zM21 13h1v1h-1zM22 13h1v1h-1zM23 13h1v1h-1zM24 13h1v1h-1z"/><path fill="#E0F8CF" d="M25 13h1v1h-1zM26 13h1v1h-1z"/><path fill="#071821" d="M27 13h1v1h-1zM1 14h1v1H1zM2 14h1v1H2zM3 14h1v1H3zM4 14h1v1H4zM5 14h1v1H5zM7 14h1v1H7z"/><path fill="#86C06C" d="M8 14h1v1H8zM9 14h1v1H9z"/><path fill="#071821" d="M10 14h1v1h-1zM18 14h1v1h-1z"/><path fill="#86C06C" d="M19 14h1v1h-1zM20 14h1v1h-1z"/><path fill="#071821" d="M21 14h1v1h-1zM23 14h1v1h-1zM24 14h1v1h-1zM25 14h1v1h-1zM26 14h1v1h-1zM2 15h1v1H2zM3 15h1v1H3zM4 15h1v1H4zM8 15h1v1H8zM9 15h1v1H9zM19 15h1v1h-1zM20 15h1v1h-1zM24 15h1v1h-1zM25 15h1v1h-1z"/></svg>