<?xml version="1.0" encoding="utf-8"?>
<!-- Generator: Adobe Illustrator 26.0.3, SVG Export Plug-In . SVG Version: 6.00 Build 0)  -->
<svg version="1.1" id="Layer_1" xmlns="http://www.w3.org/2000/svg" xmlns:xlink="http://www.w3.org/1999/xlink" x="0px" y="0px"
	 viewBox="0 0 40 40" style="enable-background:new 0 0 40 40;" xml:space="preserve">
<style type="text/css">
	.st0{fill-rule:evenodd;clip-rule:evenodd;fill:#FACC15;}
</style>
<desc>Created with Sketch.</desc>
<g id="Page-1">
	<g id="parkay">
		<path id="Combined-Shape" class="st0" d="M20,20.5V18H0v-2h20v-2H0v-2h20v-2H0V8h20V6H0V4h20V2H0V0h20.5H22v20h2V0h2v20h2V0h2v20
			h2V0h2v20h2V0h2v20h2v2H20V20.5L20,20.5z M0,20h2v20H0V20L0,20z M4,20h2v20H4V20L4,20z M8,20h2v20H8V20L8,20z M12,20h2v20h-2V20
			L12,20z M16,20h2v20h-2V20L16,20z M20,24h20v2H20V24L20,24z M20,28h20v2H20V28L20,28z M20,32h20v2H20V32L20,32z M20,36h20v2H20V36
			L20,36z"/>
	</g>
</g>
</svg>
